<svg xmlns="http://www.w3.org/2000/svg" width="16" height="16" fill="none">
  <path fill="#fff" d="M2.1459 2.85399c-.04649-.04649-.08336-.10168-.10852-.16242s-.03811-.12584-.03811-.19158.01295-.13084.03811-.19158.06203-.11593.10852-.16242.10168-.08336.16242-.10852.12584-.03811.19158-.03811.13084.01295.19158.03811.11593.06203.16242.10852l5.146 5.147 5.146-5.147c.0465-.04649.1017-.08336.1624-.10852.0608-.02516.1259-.03811.1916-.03811s.1308.01295.1916.03811c.0607.02516.1159.06203.1624.10852s.0834.10168.1085.16242c.0252.06074.0381.12584.0381.19158s-.0129.13084-.0381.19158c-.0251.06074-.062.11593-.1085.16242l-5.147 5.146 5.147 5.14601c.0465.0465.0834.1017.1085.1624.0252.0607.0381.1258.0381.1916 0 .0657-.0129.1308-.0381.1916-.0251.0607-.062.1159-.1085.1624s-.1017.0834-.1624.1085c-.0608.0252-.1259.0381-.1916.0381s-.1308-.0129-.1916-.0381c-.0607-.0251-.1159-.062-.1624-.1085l-5.146-5.14701-5.146 5.14701c-.04649.0465-.10168.0834-.16242.1085-.06074.0252-.12584.0381-.19158.0381s-.13084-.0129-.19158-.0381c-.06074-.0251-.11593-.062-.16242-.1085s-.08336-.1017-.10852-.1624c-.02516-.0608-.03811-.1259-.03811-.1916 0-.0658.01295-.1309.03811-.1916s.06203-.1159.10852-.1624l5.147-5.14601z"/>
</svg>
